<svg xmlns="http://www.w3.org/2000/svg" viewBox="0 0 900 600" preserveAspectRatio="xMinYMin meet"><path d="M498 49c-20.28-15.51-63.31-13.45-61.96 20 .23 5.61 1.93 9.88 3.96 15-17.31-6.32-40.98 4.97-43 24-13.09-6.67-22.88-4.37-36 0-.32-12.75-10.09-18.6-21-22.56-4.86-1.77-7.84-2.38-13-2.35h-15c-8.59 1.13-21.48 7.58-27.96 13.23-10.13 8.84-16.03 23.61-8.04 35.68-28.66 2.41-45.16 28.48-47.7 55l.7 12c-7.07.16-11.49 1.62-18 4.2-24.56 9.76-35.24 29.49-37.09 54.8-.28 3.87-1.06 5.8-.82 10 .83 14.66 6.03 35.32 21.91 40-5.66 6.72-8.89 12.04-9 21-.07 6.32.11 11.32 3.36 17 7.79 13.58 28.46 18.6 42.64 14-3.56 12.67 4.39 24.64 15 30.91 16.05 9.49 49.28 6.53 58-11.91 16.8 6.45 45.6 4.51 55-13 6.01 1.6 8.41 1.64 14 5.07 12.13 7.44 23.38 25.04 26.49 38.93 2.33 10.43 1.56 31.5 1.51 43-.04 7.72-1.61 15.38-2.73 23-2.2 14.91-2.4 32.96-14.31 43.87-4.93 4.52-14.44 6.23-20.96 8.32-8.54 2.74-21.37 8.38-29 13.01-5.04 3.06-12.09 7-14 12.8l44 1 35-2.26c3.58-.13 11.63.27 15 1.19l45 19.62c7.07 2.8 18.42 5.78 26 6.22 5.2-.08 3.66-.85 10 0-.78-7.16-5.05-11.95-8-18.77l10 2.71c18.77 3.95 37.94 3.29 57 3.29 11.79 0 25.22.49 36-5-3.17-5.99-12.89-9.38-19-12l-25-9.28c-7.88-2.37-19.62-5.84-25.96-11.11-7.76-6.45-11.67-27.46-13.83-37.61-2.24-10.52-6.16-35.71-6.18-46v-10.58l9.72-19.42 10.67-22L535 371c.38 9.18.33 13.08 8.02 19.79 13.84 12.09 42.16 9.95 47.98-9.79 4.7 4.59 7.83 7.5 14 10.12 3.82 1.62 9.86 2.63 14 2.37 11.94-.76 24.3-2.56 24.96-17.49.23-5.15-.56-8.14-1.96-13 23.47 5.69 41.99-20.52 32.65-41-3.05-6.69-6.65-8.53-12.65-12 13.99-7.68 16.49-31.72 4.82-42.53-5.16-4.78-13.86-7.76-20.82-8.29-3.33-.25-6.68.55-10 .82 5.64-7.97 6.07-11.3 2-20 18.97-4.64 23.09-30.84 14.65-46-4.11-7.4-7.34-9.44-14.65-13 11.41-6.02 23.51-21.47 22.9-35-.18-3.84-1.53-9.59-3.3-13-5.28-10.16-20.52-22.17-32.6-19 4.94-7.9 9.31-14.21 9.91-24 .83-13.57-10.35-25.66-23.91-25.99-8.14-.19-11.56 1.03-19 3.99 6.91-24.33-16.57-44.43-39-46.83-13.04-1.39-25.9 2.68-37 9.28-7.81 4.65-15.12 9.51-18 18.55zm86 29l8.09-6.16c5.15-3.55 14.73-5.6 20.91-4.51 13.97 2.44 20.56 16.79 17.07 29.67-2.98 11.05-12.37 21.11-23.07 25 10.1.14 12.65-8.31 25-5.47 4.86 1.11 10.29 4.39 14 7.65 2.86 2.52 5.72 5.51 7.64 8.82 9.48 16.34-.78 33.06-13.64 43.67L626 186c4.4-.99 7.43-2.43 12-1.01 16.4 5.13 19.2 30.32 10.75 43.01-7.87 11.82-24.72 13.88-37.75 11.54-4.71-.85-9.56-2.77-14-4.54 2.13 2.13 6.68 4.56 7.33 6.39 1.84 5.14-6.24 13.49-10.33 15.61-12.38 6.42-29.68 6.31-42 0 4.8 6.32 11.32 7.66 19 7.96 16.84.66 32.88-6.42 37-23.96 4.6 1.72 11.08 3.19 16 2.7 2.61-.26 9.49-2.01 11.57-1.09 2.53 1.12 2.54 5.08 2.22 7.39-1.03 7.19-6.74 11.88-12.79 15 5.75.32 7.78-1.81 13-2.68 9.32-1.55 21.38 1.57 27.79 8.72 12.81 14.31 1.63 45.88-22.79 39.96 6.51 5.53 10.42 1.47 17 2.37 8.86 1.21 13.41 10.54 13.91 18.63.31 5.06-.94 9.51-3.19 14-7.97 15.95-25.64 19.05-39.72 9 4.46 6.07 7.93 6.44 9.44 11.04l1.35 7.96c.57 11.83-9.82 15.88-19.79 16-4.55.05-9.6.26-14-.93-8.75-2.37-13.84-7.91-20-14.07 1.89 8.69-4.3 15.11-12 18.24-10 4.06-25.07.81-32.81-6.57-7.31-6.95-6.98-19.32 1.85-24.79l15.96-8.02c7.01-3.12 13.63-6.66 21-8.86-.63 2.82-1.87 6.18-1.02 9 2.39 7.87 11.93 10 19.02 10 14.84 0 26.87-9.07 23-25-.93 6.18.04 12.14-5.11 16.61-5.98 5.19-17.5 5.99-24.89 4.15-4.65-1.16-8.97-3.23-8.84-8.76.16-6.04 6.37-8.06 9.84-12-8.57 4.16-26.19 4.45-35 .64-3.79-1.63-10.24-5.59-9.55-10.5.45-3.22 3.77-3.17 7.46-5.94 3.35-2.52 5.21-5.55 7.09-9.2-4.77 4.72-7.9 8.41-15 8.9-10.74.76-26.96-6.25-25.89-18.9.42-5.04 3.72-9.5 5.89-14-2.65 1.61-12.69 5.71-14.19.69-.51-1.68.62-4.13 1.19-5.69-3.58 3.11-5.45 5.77-10 7.73-10.56 4.54-26.41 3.93-29.06-9.73-.27-1.38-.84-4.59-.72-5.89.46-5.06 5.66-3.85 11.6-9.44 6.95-6.54 13.04-23.07 6.53-31.57-2.11-2.76-4.31-3.71-7.35-5.1 3.1-4.39 7.09-8.21 9.6-13 6.94-13.25 5.73-30.45-3.92-42-8.76-10.47-19.2-14.93-32.68-12.38-6.59 1.25-12.98 4.64-15 11.38 8.92-7.1 12.59-9.14 24-9 19.48.26 30.73 20.25 28.83 38-1.66 15.48-12.47 28.61-27.83 32.23-4.18.67-8.78 1.21-13 0-8.64-1.74-14.08-6.43-21-11.23 7.37 7.35 16.77 15.3 28 14.62 15.28-.92 21.6-13.22 28.77-2.44 5.04 7.57-.2 22.62-6.1 28.49-2.22 2.21-4.76 3.54-7.67 4.62-4.74 1.75-7.09 1.7-12 1.71-15.68.02-30.44-1.49-43-12 2 2.59 6.15 6.02 6.58 9.01 1.04 7.31-10.56 11.54-15.4 10.61-2.69-.52-4.2-3.17-6.36-4.82-2.79-2.12-4.47-2.42-7.82-2.8v2c15.24 1.77 11.19 21.94 3 29.67-7.74 7.29-16.94 3.07-26 2.33.76 4.27 1.57 9.72.61 14-.72 3.19-2.81 6.51-4.94 8.96C364.54 339.5 351.8 340 339 340c5.91 5.83 13.26.31 17.99 12 4.73 11.67-5.43 21.64-15.99 24.33-4.42 1.13-7.57 1.36-12 1.83-15.87 1.7-24.15-1.31-36-12.16l10 11c-2.87 4-5.69 6.98-10 9.47-16.26 9.41-46.8 8.12-56.32-10.47-6.98-13.64.16-28.27 7.32-40-13.38 14.07-7.89 23.96-23 22.67-6.43-.54-17.79-3.44-22.83-7.46-11.46-9.14-12.06-28.24-2.78-39.12 7.58-8.89 21.46-11.58 32.61-12.09-6.17-1.75-13.93-1.33-20 .76-5.84 2.01-8.63 6.61-15 3.32-11.3-5.84-15.86-23.26-16-35.08-.24-21.23 3.75-42.03 22-55.36 6.33-4.62 14.43-8.42 22-10.49 5.15-1.41 12.92-2.02 17-5.15-5.63.95-5.9-.72-6-6-.2-10.86.77-16.94 5.31-27 7.34-16.28 20.83-29.77 39.69-30 7.55-.09 14.67-.15 22 2-8.67-7.4-21.31-.58-23.81-12-.18-1.6-.22-4.34 0-6 .29-10.05 6.82-18.15 14.81-23.65 14.34-9.87 33.5-13.34 50-6.89 6.8 2.66 20.51 10.72 18.94 19.54-.55 3.03-3.86 5.88-5.94 8 4.18-2.55 7.35-4.72 12-6.54 13.43-5.25 27.95-2.44 39 6.54-1.4-2.45-4.29-6.29-4.31-9-.03-3.83 4.75-10.25 7.4-12.83 9.94-9.64 25.86-12.54 37.91-5.17-.35-5.34-5.54-9.69-5.96-20-.69-17.08 10.77-25.81 26.96-26 8.12-.09 14.45-.37 22 3.38 12.62 6.27 11.89 11.95 21 18.62-1.74-2.9-8.35-12.32-8.18-15 .16-2.46 2.64-5.26 4.27-6.96 4.84-5.06 12.55-9.8 18.91-12.73 19.35-8.93 43.08-7.26 57.7 9.69 4.72 5.48 7.76 11.7 8.21 19 .48 7.87-2.42 12.39-5.91 19zM435 269c15.26 6.69 23.1 6 39 6-.98 12.62 1.08 14.9-7.38 25.99-2.06 2.7-5.07 6.44-8.62 7.1-4.12.76-7.32-3.18-9.51-6.11-4.79-6.39-8.17-15.45-10.83-22.98-1.19-3.35-3.14-6.43-2.66-10zm-1 5c2.02 10.01 6.64 21.81 12.76 30 2.26 3.02 6.12 7.55 10.24 7.55 7.91 0 15.28-15.24 18-21.55 2.22 2.07 4.35 4.4 7 5.91 11.87 6.79 19.19-.36 30-2.91-5.42 20.61-11.3 40.87-14.58 62l-1.59 17-1.83 22c-.04 27.15-.76 49.92 3.75 77 3.24 19.43 3.79 19.72 9.11 38 1.76 6.04 5.42 17.39 9.47 21.91 6.29 7.03 17.92 10.84 26.67 13.76 12.3 4.1 29.84 10.15 41 16.33-4.55 1.8-17.47 1-23 1l-50-1.28c-7.93-.95-12.09-1.22-20-3.19-2.18-.68-5.39-1.74-7.25 0-3.88 3.98 4.31 14.5 6.25 18.47-15.14-1.27-36.9-10.63-51-16.86-6.58-2.91-13.98-6.95-21-8.47-5.62-1.22-9.44-.71-15-.67h-59c-9.55.01-7.73.83-16 2 8.16-7.59 28.14-15.68 39-19.33 9.71-3.27 18.87-5.17 25.61-13.67 4.9-6.19 9.05-26.65 10.47-35 1.87-11.02 4.9-21.74 4.84-33v-18l-1.63-10c-1.65-13.17-.95-16.69-7.87-29-7.72-13.75-19.55-30.98-37.42-30v-8c5.24 1.25 6.41 2.73 11 4.54l6 1.79c1.23.26 2.75.54 4 .52 14.3-.18-1.26-17.74-4.44-21.85-1.24-1.59-3.38-3.88-3.37-6 .02-3.15 4.1-5.58 6.81-11 3.04-6.07 1.51-9.76 1-16 9.05 2.62 8.97 2.12 18 2 2.99 11.06 8.13 16.48 10.56 32 .39 2.47 1.22 9.31-1.16 10.89-3.29 2.18-10.92-3.35-13.4-5.36l-7-6.53-10-11c4.17 9.33 12.94 19.44 22 24.3 5.02 2.69 12.63 4.61 13.74-3.3.92-6.62-5.69-23.49-8.34-30-.95-2.31-4.35-8.94-4.17-10.91.3-3.34 4.25-4.6 7.8-10.09 4.13-6.38 3.97-10.8 3.97-18 11.99-.01 10.9-1.01 20-8zm89.2 22c-3.2 7.13-5.14 12.17 0 19 3.38 4.08 7.83 6.18 8.34 9.21.35 2.09-1.98 11.1-2.54 13.79l-2.75 12-14.83 29c-3 5.24-6.15 12.96-11.42 16l2-27 4.42-34 6.58-38h10.2zm23.8 30c-.91 6.43-2.19 9.17-4.77 15-.94 2.13-2.61 5.38-1.17 7.66 1.65 2.56 4.87 1.04 6.94 0 2.99-1.46 6.71-4.29 10-4.7l14 2.04c-7.57 4.92-22.32 8.85-33.91 18.67-4.77 4.04-10.26 12-13.75 17.33-7.89 12.07-17.91 33.42-23.34 47-1.09-2.76-.98-4.07-1-7-.02-4.23-.36-15.54.64-19l14.5-25c12.16-21.8 15.3-29.78 19.86-54l12 2zm0 9l9 7c-3.87 2.8-9.27 5.35-14 6l5-13zm-174 1l13 23c-5.5 1.31-19.19-1.24-23.61-4.88-3.43-2.81-2.43-5.35-8.39-10.12l19-8z"/></svg>